<svg width="250" height="187" viewBox="0 0 774 187" fill="none" xmlns="http://www.w3.org/2000/svg">
<path d="M439.69 70.4981C440.29 90.1681 432.87 107.328 421.69 122.798C409.86 139.218 395.5 153.348 377.69 163.378C364.48 170.828 349.91 173.168 334.88 172.378C324.88 171.868 317.58 166.168 311.17 159.138C296.85 143.468 293.86 124.818 298.82 105.048C306.33 75.3681 321 49.8181 346 31.1081C356.028 23.5821 368.212 19.4834 380.75 19.4181C400.99 19.0181 418.22 25.5881 431.69 40.9381C436.92 46.9381 438.86 54.3081 439.69 62.0081C439.835 64.8362 439.835 67.6699 439.69 70.4981ZM345.58 154.588C352.48 152.938 359.77 152.208 366.19 149.468C387.71 140.268 402.27 123.658 412.63 103.128C417.41 93.4203 420.15 82.8358 420.68 72.0281C421.23 63.1381 419.91 54.2781 413.25 47.5081C401.12 35.1981 374.92 29.6281 356.95 43.8181C341.57 55.9781 330.95 71.8181 323.36 89.3181C317.52 102.788 313.29 116.998 317.56 132.318C320.72 143.698 331 155.368 345.58 154.588Z" fill="white"/>
<path d="M558.86 135.898C559.54 134.508 560.57 133.188 560.86 131.718C563.52 117.858 565.86 103.918 568.67 90.0984C572.82 69.8484 575.67 49.4884 576.04 28.7884C576.16 22.3484 583.5 15.9184 589.68 17.1784C592.15 17.6884 594.88 20.6384 596.04 23.1784C599.44 30.4984 596.52 37.8584 595.04 45.1784C591.31 63.3684 587.45 81.5384 583.92 99.7684C581.43 112.628 579.13 125.528 577.25 138.478C576.47 143.868 576.85 149.478 576.96 154.928C577.06 159.928 575.41 164.018 570.96 166.088C566.51 168.158 561.54 169.198 557.46 165.088C554.644 162.331 552.114 159.296 549.91 156.028C544.99 148.608 540.47 140.928 535.68 133.418C523.713 114.718 511.737 96.035 499.75 77.3684C498.25 75.0184 496.88 72.5984 495.5 70.1784C495.118 69.4167 494.784 68.6318 494.5 67.8284L493.03 68.5584C492.048 71.1032 491.243 73.7127 490.62 76.3684C486.81 99.2984 483.05 122.238 479.48 145.208C478.926 149.185 478.849 153.213 479.25 157.208C479.85 164.018 475.76 168.118 471.16 171.708C466.9 175.038 461.44 172.128 459.78 166.488C456.91 156.698 459.63 147.298 461.53 137.908C464.89 121.328 468.78 104.908 472.22 88.3084C474.35 78.0784 476.33 67.7984 477.85 57.4684C478.79 51.0784 478.33 44.4684 479.31 38.0984C479.85 34.5984 481.24 30.4384 483.71 28.1584C490.16 22.2084 499.15 25.3284 500.97 34.7284C505.29 56.9784 516.68 75.7284 528.59 94.2984C537.69 108.488 547.42 122.298 556.87 136.228L558.86 135.898Z" fill="white"/>
<path d="M197.74 28.3681C212.74 26.4881 227.74 24.7081 242.74 22.6981C251.79 21.4781 260.74 19.8381 269.82 18.5381C274.6 17.8481 280.5 21.1381 282.68 25.3881C285.25 30.3881 280.84 37.3881 274.45 37.8881C254.92 39.5981 235.38 41.2681 215.82 42.6881C205.98 43.4081 200.82 46.8181 200.54 56.8681C200.31 65.3281 197.16 73.7181 195.32 82.1381C193.53 90.3481 195.12 91.7581 203.23 90.2881C210.9 88.8881 218.7 88.2881 226.41 87.0281C233.47 85.9281 240.41 84.2581 247.54 83.3481C251.968 82.7781 256.452 82.7781 260.88 83.3481C264.82 83.8781 268.17 85.9881 267.88 90.9281C267.59 95.8681 264.99 99.3181 260.39 100.308C252.13 102.088 243.75 103.308 235.39 104.538C222.88 106.308 210.3 107.538 197.85 109.678C195.55 110.058 192.39 112.988 191.92 115.218C189.77 125.428 188.18 135.768 186.92 146.118C186.11 152.698 187.75 154.348 194.41 154.058C202.565 153.818 210.701 153.13 218.78 151.998C231.89 149.998 244.9 147.308 257.93 144.788C265.47 143.318 272.45 148.028 272.73 154.858C272.88 158.588 271.13 161.068 267.83 162.028C263.382 163.391 258.825 164.371 254.21 164.958C239.21 166.628 224.09 167.958 209.03 169.468C198.65 170.468 188.3 171.798 177.91 172.598C166.68 173.458 164.27 162.688 165.98 154.528C168.86 140.738 171.59 126.918 174.07 113.048C176.3 100.648 178.34 88.2181 180.07 75.7381C181.29 66.7381 182.07 57.5481 182.46 48.4281C182.58 45.5281 180.84 42.4281 179.53 39.6281C176.73 33.6281 179.53 28.2881 186.25 27.5481C188.248 27.4126 190.252 27.4126 192.25 27.5481C194.08 27.5981 195.91 27.7281 197.74 27.8181V28.3681Z" fill="white"/>
<path d="M101.27 16.8184C112.42 17.2384 122.91 19.0684 132.8 24.0584C157.01 36.2784 153.59 60.9184 142.71 75.1484C129.05 93.0084 110.09 102.958 89.1 109.368C78.04 112.758 66.75 115.448 55.5 118.208C52.75 118.888 51.5 120.128 51.33 122.838C50.7 134.288 50.16 145.748 49.33 157.188C49.1426 160.314 48.3406 163.373 46.97 166.188C45.27 169.468 42.41 172.308 38.17 171.288C33.93 170.268 30.94 167.488 30.95 162.918C30.95 154.608 31.07 146.268 31.81 137.998C33 124.768 34.65 111.558 36.22 98.3684C37.3 89.3084 38.75 80.2784 39.67 71.1984C40.2989 65.0764 40.5427 58.9209 40.4 52.7684C40.4 50.6984 38.89 48.3784 37.48 46.6684C31.36 39.2784 32.48 32.8884 41.62 29.5784C50.2296 26.5474 59.0456 24.1378 68 22.3684C79 20.1184 90.16 18.6384 101.27 16.8184ZM54.27 99.7484C55.0762 99.9594 55.9067 100.064 56.74 100.058C74.51 96.6384 91.89 92.1384 107.89 83.1984C117.42 77.8784 126.61 72.3584 131.29 61.8984C135.41 52.6984 133.45 39.0784 120.2 36.2584C114.2 34.9884 107.91 33.5684 101.97 34.2584C90.3026 35.6713 78.7242 37.7413 67.29 40.4584C59.7 42.1784 59.72 43.0884 59.12 50.6084C58.34 60.3884 57.24 70.1584 56.27 79.9284C55.57 86.4584 54.9 93.0183 54.22 99.7484H54.27Z" fill="white"/>
<path d="M660.66 157.308C662.23 145.488 663.78 133.958 665.28 122.418C665.8 118.418 666.22 114.478 666.64 110.508C667.51 102.438 665.97 95.6183 660.06 89.0983C651.2 79.3683 644 68.0683 635.44 57.9583C630.02 51.5283 623.44 46.1183 617.44 40.1183C614.287 37.0088 611.35 33.6878 608.65 30.1783C606.51 27.2983 607.7 24.3383 610.23 22.1783C612.93 19.8883 615.62 16.4083 619.74 18.9483C624.22 21.7083 629.07 24.3583 632.54 28.1683C643.59 40.3683 654 52.9583 664.74 65.3683C668.32 69.5183 671.99 73.5783 675.58 77.7183C677.95 80.4483 679.93 80.4283 682.44 77.5983C698.5 59.4983 714.65 41.4716 730.89 23.5183C733.734 20.3428 736.924 17.4951 740.4 15.0283C743.54 12.8183 747.02 13.0283 749.8 16.2583C752.58 19.4883 752.91 22.8683 750.49 26.2583C747.624 30.5183 744.505 34.6023 741.15 38.4883C725.15 56.1216 709.017 73.6616 692.75 91.1083C686.89 97.4283 686.13 105.368 685.26 113.308C683.54 129.158 681.98 145.028 680.01 160.838C679.67 163.588 678.32 166.918 676.29 168.598C670.02 173.818 663.69 171.348 661.81 163.418C661.31 161.368 661 159.198 660.66 157.308Z" fill="white"/>
</svg>
